<svg width="29" height="29" viewBox="0 0 29 29" fill="none" xmlns="http://www.w3.org/2000/svg">
<path fill-rule="evenodd" clip-rule="evenodd" d="M14.9616 3.22813C8.51616 3.22813 3.29112 8.45317 3.29112 14.8986C3.29112 21.344 8.51616 26.5691 14.9616 26.5691C21.407 26.5691 26.632 21.344 26.632 14.8986C26.632 8.45317 21.407 3.22813 14.9616 3.22813ZM0.957031 14.8986C0.957031 7.16411 7.2271 0.894043 14.9616 0.894043C22.6961 0.894043 28.9661 7.16411 28.9661 14.8986C28.9661 22.6331 22.6961 28.9031 14.9616 28.9031C7.2271 28.9031 0.957031 22.6331 0.957031 14.8986Z" fill="#493A8B"/>
<path fill-rule="evenodd" clip-rule="evenodd" d="M12.1506 27.4279C12.0377 27.2822 12.0377 25.9841 12.1506 23.5337C10.9416 23.5755 10.1778 23.4916 9.8591 23.2821C9.38102 22.9677 8.90247 21.9983 8.47778 21.3151C8.05315 20.6319 7.1107 20.5239 6.7301 20.3712C6.34951 20.2184 6.25397 19.5959 7.77884 20.0667C9.30364 20.5376 9.37804 21.8197 9.8591 22.1196C10.3401 22.4194 11.4902 22.2882 12.0114 22.048C12.5327 21.8078 12.4943 20.9136 12.5873 20.5593C12.7048 20.2287 12.2906 20.1553 12.2815 20.1526C11.7726 20.1526 9.09912 19.5712 8.36481 16.9823C7.63045 14.3934 8.5764 12.7013 9.08103 11.9738C9.41749 11.4889 9.38773 10.4553 8.99175 8.87312C10.4293 8.68943 11.5387 9.14189 12.3199 10.2306C12.3206 10.2369 13.344 9.62207 14.9614 9.62207C16.5788 9.62207 17.1526 10.1229 17.5954 10.2306C18.0382 10.3384 18.3924 8.32484 21.1272 8.87312C20.5562 9.99535 20.0781 11.3977 20.443 11.9738C20.808 12.55 22.2404 14.3822 21.3605 16.9823C20.774 18.7158 19.6209 19.7725 17.9013 20.1526C17.7041 20.2155 17.6055 20.3171 17.6055 20.4571C17.6055 20.6672 17.8721 20.6902 18.2561 21.6744C18.5122 22.3306 18.5307 24.2048 18.3116 27.2969C17.7567 27.4381 17.325 27.533 17.0165 27.5814C16.4695 27.6674 15.8756 27.7156 15.292 27.7342C14.7085 27.7528 14.5059 27.7507 13.6991 27.6756C13.1613 27.6256 12.6451 27.543 12.1506 27.4279Z" fill="#493A8B"/>
</svg>
