<svg width="28" height="29" viewBox="0 0 28 29" fill="none" xmlns="http://www.w3.org/2000/svg">
<path d="M5.20739 7.57445C6.48583 7.57445 7.52221 6.53808 7.52221 5.25964C7.52221 3.9812 6.48583 2.94482 5.20739 2.94482C3.92896 2.94482 2.89258 3.9812 2.89258 5.25964C2.89258 6.53808 3.92896 7.57445 5.20739 7.57445Z" stroke="#595964" stroke-width="1.85185"/>
<path d="M7.52221 11.0464H2.89258V25.514H7.52221V11.0464Z" stroke="#595964" stroke-width="1.85185" stroke-linejoin="round"/>
<path d="M12.1523 16.5441V25.514H16.2033V17.4121C16.2033 15.9654 17.0713 14.808 18.5181 14.808C19.9648 14.808 20.8329 16.2547 20.8329 17.4121V25.514H24.8838V16.5441C24.8838 14.808 22.8584 11.0464 18.5181 11.0464C14.1778 11.0464 12.1523 14.808 12.1523 16.5441Z" stroke="#595964" stroke-width="1.85185" stroke-linejoin="round"/>
</svg>
