<svg width="29" height="29" viewBox="0 0 29 29" fill="none" xmlns="http://www.w3.org/2000/svg">
<path fill-rule="evenodd" clip-rule="evenodd" d="M14.4436 2.9447C8.05139 2.9447 2.8695 8.12658 2.8695 14.5188C2.8695 20.911 8.05139 26.0928 14.4436 26.0928C20.8358 26.0928 26.0177 20.911 26.0177 14.5188C26.0177 8.12658 20.8358 2.9447 14.4436 2.9447ZM0.554688 14.5188C0.554688 6.84817 6.77297 0.629883 14.4436 0.629883C22.1142 0.629883 28.3325 6.84817 28.3325 14.5188C28.3325 22.1894 22.1142 28.4077 14.4436 28.4077C6.77297 28.4077 0.554688 22.1894 0.554688 14.5188Z" fill="#595964"/>
<path fill-rule="evenodd" clip-rule="evenodd" d="M11.6566 26.9443C11.5446 26.7998 11.5446 25.5124 11.6566 23.0823C10.4576 23.1237 9.70005 23.0405 9.38402 22.8327C8.90989 22.5209 8.4353 21.5595 8.01412 20.882C7.59299 20.2044 6.65833 20.0973 6.28087 19.9459C5.90342 19.7944 5.80867 19.1769 7.32095 19.6439C8.83316 20.1109 8.90694 21.3824 9.38402 21.6798C9.86105 21.9771 11.0016 21.847 11.5186 21.6088C12.0356 21.3706 11.9975 20.4838 12.0897 20.1324C12.2062 19.8045 11.7955 19.7318 11.7865 19.7291C11.2817 19.7291 8.63032 19.1525 7.90208 16.5849C7.17378 14.0175 8.11192 12.3393 8.61238 11.6179C8.94606 11.1369 8.91655 10.1119 8.52384 8.54275C9.94953 8.36057 11.0498 8.8093 11.8245 9.88904C11.8252 9.89524 12.8402 9.28552 14.4442 9.28552C16.0482 9.28552 16.6172 9.78216 17.0564 9.88904C17.4956 9.99593 17.8468 7.999 20.5591 8.54275C19.9928 9.65571 19.5186 11.0465 19.8806 11.6179C20.2425 12.1893 21.6631 14.0063 20.7904 16.5849C20.2087 18.3041 19.0652 19.3521 17.3598 19.7291C17.1642 19.7915 17.0664 19.8922 17.0664 20.0311C17.0664 20.2395 17.3308 20.2622 17.7117 21.2383C17.9656 21.8891 17.984 23.7478 17.7667 26.8143C17.2164 26.9544 16.7882 27.0485 16.4823 27.0966C15.9398 27.1818 15.3508 27.2296 14.7721 27.2481C14.1934 27.2665 13.9924 27.2644 13.1923 27.19C12.659 27.1403 12.147 27.0584 11.6566 26.9443Z" fill="#595964"/>
</svg>
