<svg width="28" height="29" viewBox="0 0 28 29" fill="none" xmlns="http://www.w3.org/2000/svg">
<path d="M19.7877 4.10205H8.21361C5.65674 4.10205 3.58398 6.17481 3.58398 8.73168V20.3058C3.58398 22.8626 5.65674 24.9354 8.21361 24.9354H19.7877C22.3446 24.9354 24.4173 22.8626 24.4173 20.3058V8.73168C24.4173 6.17481 22.3446 4.10205 19.7877 4.10205Z" stroke="#595964" stroke-width="1.85185" stroke-linejoin="round"/>
<path d="M14.0007 19.1484C16.5576 19.1484 18.6304 17.0757 18.6304 14.5188C18.6304 11.9619 16.5576 9.88916 14.0007 9.88916C11.4438 9.88916 9.37109 11.9619 9.37109 14.5188C9.37109 17.0757 11.4438 19.1484 14.0007 19.1484Z" stroke="#595964" stroke-width="1.85185" stroke-linejoin="round"/>
<path d="M20.3664 9.31042C21.0056 9.31042 21.5238 8.79225 21.5238 8.15301C21.5238 7.51378 21.0056 6.99561 20.3664 6.99561C19.7272 6.99561 19.209 7.51378 19.209 8.15301C19.209 8.79225 19.7272 9.31042 20.3664 9.31042Z" fill="#595964"/>
</svg>
