<svg width="361" height="302" viewBox="0 0 361 302" fill="none" xmlns="http://www.w3.org/2000/svg">
<g filter="url(#filter0_d_595_805)">
<path d="M173.13 21.7659C176.405 16.0922 184.595 16.0922 187.87 21.7659L329.447 266.984C332.723 272.658 328.628 279.75 322.077 279.75H38.9232C32.3717 279.75 28.2771 272.658 31.5528 266.984L173.13 21.7659Z" fill="white" fill-opacity="0.3" shape-rendering="crispEdges"/>
</g>
<rect x="178.367" y="71.8191" width="46.3592" height="47.7674" rx="13.2972" transform="rotate(43.7733 178.367 71.8191)" fill="#B1EBFF"/>
<path d="M179.593 157.124L177.22 166.228H174.536L173.083 160.236L171.579 166.228H168.894L166.586 157.124H168.959L170.269 163.751L171.89 157.124H174.328L175.884 163.751L177.207 157.124H179.593ZM187.527 162.493C187.527 162.7 187.514 162.916 187.488 163.141H182.469C182.504 163.591 182.646 163.936 182.897 164.179C183.157 164.412 183.472 164.529 183.844 164.529C184.397 164.529 184.782 164.295 184.998 163.828H187.358C187.237 164.304 187.017 164.732 186.697 165.112C186.386 165.493 185.992 165.791 185.517 166.007C185.041 166.223 184.51 166.331 183.922 166.331C183.213 166.331 182.582 166.18 182.028 165.877C181.475 165.575 181.043 165.143 180.731 164.581C180.42 164.019 180.265 163.361 180.265 162.609C180.265 161.857 180.416 161.2 180.718 160.638C181.03 160.076 181.462 159.644 182.015 159.341C182.569 159.039 183.204 158.887 183.922 158.887C184.622 158.887 185.244 159.034 185.789 159.328C186.334 159.622 186.757 160.042 187.06 160.586C187.371 161.131 187.527 161.766 187.527 162.493ZM185.257 161.909C185.257 161.529 185.128 161.226 184.868 161.001C184.609 160.776 184.285 160.664 183.896 160.664C183.524 160.664 183.208 160.772 182.949 160.988C182.698 161.204 182.543 161.511 182.482 161.909H185.257ZM190.914 160.016C191.122 159.678 191.42 159.406 191.809 159.199C192.198 158.991 192.644 158.887 193.145 158.887C193.742 158.887 194.282 159.039 194.766 159.341C195.25 159.644 195.631 160.076 195.907 160.638C196.193 161.2 196.335 161.853 196.335 162.596C196.335 163.34 196.193 163.997 195.907 164.568C195.631 165.13 195.25 165.566 194.766 165.877C194.282 166.18 193.742 166.331 193.145 166.331C192.635 166.331 192.19 166.232 191.809 166.033C191.429 165.826 191.131 165.553 190.914 165.216V166.228H188.697V156.631H190.914V160.016ZM194.079 162.596C194.079 162.043 193.923 161.611 193.612 161.3C193.309 160.98 192.933 160.82 192.484 160.82C192.043 160.82 191.667 160.98 191.355 161.3C191.053 161.619 190.901 162.056 190.901 162.609C190.901 163.163 191.053 163.599 191.355 163.919C191.667 164.239 192.043 164.399 192.484 164.399C192.925 164.399 193.301 164.239 193.612 163.919C193.923 163.591 194.079 163.15 194.079 162.596Z" fill="#9056E8"/>
<path d="M116.4 192.323H118.686V193.218H115.291V186.458H116.4V192.323ZM121.937 193.306C121.432 193.306 120.975 193.192 120.566 192.965C120.158 192.732 119.837 192.407 119.603 191.992C119.37 191.571 119.253 191.085 119.253 190.534C119.253 189.989 119.373 189.506 119.613 189.084C119.853 188.663 120.18 188.339 120.595 188.112C121.01 187.885 121.474 187.771 121.986 187.771C122.498 187.771 122.962 187.885 123.377 188.112C123.792 188.339 124.119 188.663 124.359 189.084C124.599 189.506 124.719 189.989 124.719 190.534C124.719 191.078 124.596 191.561 124.35 191.983C124.103 192.404 123.766 192.732 123.338 192.965C122.917 193.192 122.45 193.306 121.937 193.306ZM121.937 192.343C122.223 192.343 122.489 192.275 122.735 192.138C122.988 192.002 123.192 191.798 123.348 191.526C123.503 191.253 123.581 190.923 123.581 190.534C123.581 190.144 123.507 189.817 123.357 189.551C123.208 189.279 123.011 189.075 122.764 188.938C122.518 188.802 122.252 188.734 121.967 188.734C121.681 188.734 121.415 188.802 121.169 188.938C120.929 189.075 120.738 189.279 120.595 189.551C120.453 189.817 120.381 190.144 120.381 190.534C120.381 191.111 120.527 191.558 120.819 191.876C121.117 192.187 121.49 192.343 121.937 192.343ZM126.924 188.637C127.086 188.365 127.3 188.154 127.566 188.005C127.838 187.849 128.159 187.771 128.529 187.771V188.919H128.247C127.812 188.919 127.482 189.029 127.255 189.25C127.034 189.47 126.924 189.853 126.924 190.397V193.218H125.815V187.859H126.924V188.637ZM134.46 190.407C134.46 190.608 134.447 190.79 134.421 190.952H130.326C130.359 191.38 130.518 191.723 130.803 191.983C131.088 192.242 131.438 192.372 131.853 192.372C132.45 192.372 132.871 192.122 133.118 191.623H134.314C134.152 192.116 133.857 192.521 133.429 192.839C133.008 193.15 132.482 193.306 131.853 193.306C131.341 193.306 130.881 193.192 130.472 192.965C130.07 192.732 129.752 192.407 129.519 191.992C129.292 191.571 129.179 191.085 129.179 190.534C129.179 189.982 129.289 189.499 129.509 189.084C129.736 188.663 130.051 188.339 130.453 188.112C130.861 187.885 131.328 187.771 131.853 187.771C132.359 187.771 132.81 187.881 133.205 188.102C133.601 188.322 133.909 188.634 134.129 189.036C134.35 189.431 134.46 189.888 134.46 190.407ZM133.303 190.057C133.296 189.648 133.15 189.321 132.865 189.075C132.58 188.828 132.226 188.705 131.805 188.705C131.422 188.705 131.095 188.828 130.822 189.075C130.55 189.314 130.388 189.642 130.336 190.057H133.303ZM142.039 187.771C142.46 187.771 142.836 187.859 143.167 188.034C143.504 188.209 143.767 188.468 143.955 188.812C144.149 189.156 144.247 189.571 144.247 190.057V193.218H143.147V190.222C143.147 189.742 143.028 189.376 142.788 189.123C142.548 188.864 142.22 188.734 141.805 188.734C141.39 188.734 141.06 188.864 140.813 189.123C140.573 189.376 140.453 189.742 140.453 190.222V193.218H139.354V190.222C139.354 189.742 139.234 189.376 138.994 189.123C138.754 188.864 138.427 188.734 138.012 188.734C137.597 188.734 137.266 188.864 137.02 189.123C136.78 189.376 136.66 189.742 136.66 190.222V193.218H135.551V187.859H136.66V188.472C136.842 188.251 137.072 188.079 137.351 187.956C137.629 187.833 137.928 187.771 138.245 187.771C138.673 187.771 139.056 187.862 139.393 188.044C139.73 188.225 139.99 188.488 140.171 188.831C140.333 188.507 140.586 188.251 140.93 188.063C141.274 187.869 141.643 187.771 142.039 187.771ZM149.293 186.458V193.218H148.184V186.458H149.293ZM151.857 188.647C152.046 188.4 152.302 188.193 152.626 188.024C152.95 187.856 153.316 187.771 153.725 187.771C154.192 187.771 154.617 187.888 154.999 188.121C155.388 188.348 155.693 188.669 155.913 189.084C156.134 189.499 156.244 189.976 156.244 190.514C156.244 191.052 156.134 191.535 155.913 191.963C155.693 192.385 155.388 192.715 154.999 192.955C154.617 193.189 154.192 193.306 153.725 193.306C153.316 193.306 152.953 193.225 152.636 193.062C152.318 192.894 152.058 192.686 151.857 192.44V195.766H150.749V187.859H151.857V188.647ZM155.116 190.514C155.116 190.144 155.038 189.827 154.882 189.561C154.733 189.289 154.532 189.084 154.279 188.948C154.033 188.805 153.767 188.734 153.482 188.734C153.203 188.734 152.937 188.805 152.684 188.948C152.438 189.091 152.237 189.298 152.081 189.571C151.932 189.843 151.857 190.164 151.857 190.534C151.857 190.903 151.932 191.227 152.081 191.506C152.237 191.779 152.438 191.986 152.684 192.129C152.937 192.271 153.203 192.343 153.482 192.343C153.767 192.343 154.033 192.271 154.279 192.129C154.532 191.98 154.733 191.766 154.882 191.487C155.038 191.208 155.116 190.884 155.116 190.514ZM159.286 193.306C158.864 193.306 158.485 193.231 158.148 193.082C157.817 192.926 157.555 192.719 157.36 192.459C157.165 192.194 157.062 191.898 157.049 191.574H158.196C158.216 191.801 158.323 191.992 158.517 192.148C158.718 192.297 158.968 192.372 159.266 192.372C159.578 192.372 159.818 192.313 159.986 192.197C160.161 192.074 160.249 191.918 160.249 191.73C160.249 191.529 160.151 191.38 159.957 191.282C159.769 191.185 159.467 191.078 159.052 190.961C158.65 190.851 158.323 190.744 158.07 190.641C157.817 190.537 157.597 190.378 157.409 190.164C157.227 189.95 157.136 189.668 157.136 189.318C157.136 189.032 157.221 188.773 157.389 188.54C157.558 188.3 157.798 188.112 158.109 187.975C158.427 187.839 158.79 187.771 159.198 187.771C159.808 187.771 160.297 187.927 160.667 188.238C161.043 188.543 161.244 188.961 161.27 189.493H160.161C160.142 189.253 160.044 189.062 159.869 188.919C159.694 188.776 159.458 188.705 159.159 188.705C158.868 188.705 158.644 188.76 158.488 188.87C158.333 188.981 158.255 189.126 158.255 189.308C158.255 189.451 158.307 189.571 158.41 189.668C158.514 189.765 158.641 189.843 158.79 189.901C158.939 189.953 159.159 190.021 159.451 190.106C159.84 190.209 160.158 190.316 160.404 190.427C160.657 190.53 160.874 190.686 161.056 190.893C161.238 191.101 161.332 191.376 161.338 191.72C161.338 192.025 161.254 192.297 161.085 192.537C160.917 192.777 160.677 192.965 160.365 193.101C160.061 193.237 159.701 193.306 159.286 193.306ZM167.39 187.859V193.218H166.281V192.586C166.106 192.806 165.876 192.981 165.59 193.111C165.311 193.234 165.013 193.296 164.695 193.296C164.274 193.296 163.895 193.208 163.557 193.033C163.227 192.858 162.964 192.599 162.77 192.255C162.582 191.911 162.488 191.496 162.488 191.01V187.859H163.587V190.845C163.587 191.325 163.707 191.694 163.947 191.954C164.186 192.206 164.514 192.333 164.929 192.333C165.344 192.333 165.671 192.206 165.911 191.954C166.158 191.694 166.281 191.325 166.281 190.845V187.859H167.39ZM175.34 187.771C175.762 187.771 176.138 187.859 176.468 188.034C176.806 188.209 177.068 188.468 177.256 188.812C177.451 189.156 177.548 189.571 177.548 190.057V193.218H176.449V190.222C176.449 189.742 176.329 189.376 176.089 189.123C175.849 188.864 175.522 188.734 175.107 188.734C174.692 188.734 174.361 188.864 174.115 189.123C173.875 189.376 173.755 189.742 173.755 190.222V193.218H172.656V190.222C172.656 189.742 172.536 189.376 172.296 189.123C172.056 188.864 171.728 188.734 171.313 188.734C170.898 188.734 170.568 188.864 170.321 189.123C170.081 189.376 169.961 189.742 169.961 190.222V193.218H168.853V187.859H169.961V188.472C170.143 188.251 170.373 188.079 170.652 187.956C170.931 187.833 171.229 187.771 171.547 187.771C171.975 187.771 172.357 187.862 172.695 188.044C173.032 188.225 173.291 188.488 173.473 188.831C173.635 188.507 173.888 188.251 174.231 188.063C174.575 187.869 174.945 187.771 175.34 187.771ZM184.258 187.771C184.666 187.771 185.029 187.859 185.347 188.034C185.671 188.209 185.924 188.468 186.106 188.812C186.294 189.156 186.388 189.571 186.388 190.057V193.218H185.289V190.222C185.289 189.742 185.169 189.376 184.929 189.123C184.689 188.864 184.361 188.734 183.946 188.734C183.531 188.734 183.201 188.864 182.954 189.123C182.714 189.376 182.594 189.742 182.594 190.222V193.218H181.486V186.02H182.594V188.481C182.782 188.254 183.019 188.079 183.304 187.956C183.596 187.833 183.914 187.771 184.258 187.771ZM187.432 190.514C187.432 189.976 187.543 189.499 187.763 189.084C187.99 188.669 188.295 188.348 188.677 188.121C189.066 187.888 189.494 187.771 189.961 187.771C190.383 187.771 190.749 187.856 191.06 188.024C191.378 188.186 191.631 188.39 191.819 188.637V187.859H192.938V193.218H191.819V192.42C191.631 192.673 191.375 192.884 191.051 193.053C190.726 193.221 190.357 193.306 189.942 193.306C189.481 193.306 189.06 193.189 188.677 192.955C188.295 192.715 187.99 192.385 187.763 191.963C187.543 191.535 187.432 191.052 187.432 190.514ZM191.819 190.534C191.819 190.164 191.741 189.843 191.586 189.571C191.436 189.298 191.239 189.091 190.992 188.948C190.746 188.805 190.48 188.734 190.195 188.734C189.909 188.734 189.644 188.805 189.397 188.948C189.151 189.084 188.95 189.289 188.794 189.561C188.645 189.827 188.57 190.144 188.57 190.514C188.57 190.884 188.645 191.208 188.794 191.487C188.95 191.766 189.151 191.98 189.397 192.129C189.65 192.271 189.916 192.343 190.195 192.343C190.48 192.343 190.746 192.271 190.992 192.129C191.239 191.986 191.436 191.779 191.586 191.506C191.741 191.227 191.819 190.903 191.819 190.534ZM196.339 193.306C195.918 193.306 195.538 193.231 195.201 193.082C194.87 192.926 194.608 192.719 194.413 192.459C194.219 192.194 194.115 191.898 194.102 191.574H195.25C195.269 191.801 195.376 191.992 195.571 192.148C195.772 192.297 196.021 192.372 196.32 192.372C196.631 192.372 196.871 192.313 197.039 192.197C197.215 192.074 197.302 191.918 197.302 191.73C197.302 191.529 197.205 191.38 197.01 191.282C196.822 191.185 196.521 191.078 196.106 190.961C195.704 190.851 195.376 190.744 195.123 190.641C194.87 190.537 194.65 190.378 194.462 190.164C194.28 189.95 194.19 189.668 194.19 189.318C194.19 189.032 194.274 188.773 194.443 188.54C194.611 188.3 194.851 188.112 195.162 187.975C195.48 187.839 195.843 187.771 196.252 187.771C196.861 187.771 197.351 187.927 197.72 188.238C198.096 188.543 198.297 188.961 198.323 189.493H197.215C197.195 189.253 197.098 189.062 196.923 188.919C196.748 188.776 196.511 188.705 196.213 188.705C195.921 188.705 195.697 188.76 195.542 188.87C195.386 188.981 195.308 189.126 195.308 189.308C195.308 189.451 195.36 189.571 195.464 189.668C195.568 189.765 195.694 189.843 195.843 189.901C195.992 189.953 196.213 190.021 196.505 190.106C196.894 190.209 197.211 190.316 197.458 190.427C197.711 190.53 197.928 190.686 198.109 190.893C198.291 191.101 198.385 191.376 198.391 191.72C198.391 192.025 198.307 192.297 198.139 192.537C197.97 192.777 197.73 192.965 197.419 193.101C197.114 193.237 196.754 193.306 196.339 193.306ZM203.225 188.656C203.413 188.397 203.669 188.186 203.993 188.024C204.324 187.856 204.69 187.771 205.092 187.771C205.566 187.771 205.994 187.885 206.376 188.112C206.759 188.339 207.06 188.663 207.281 189.084C207.501 189.499 207.612 189.976 207.612 190.514C207.612 191.052 207.501 191.535 207.281 191.963C207.06 192.385 206.756 192.715 206.367 192.955C205.984 193.189 205.559 193.306 205.092 193.306C204.677 193.306 204.308 193.225 203.984 193.062C203.666 192.9 203.413 192.693 203.225 192.44V193.218H202.116V186.02H203.225V188.656ZM206.483 190.514C206.483 190.144 206.405 189.827 206.25 189.561C206.101 189.289 205.9 189.084 205.647 188.948C205.4 188.805 205.135 188.734 204.849 188.734C204.57 188.734 204.305 188.805 204.052 188.948C203.805 189.091 203.604 189.298 203.449 189.571C203.299 189.843 203.225 190.164 203.225 190.534C203.225 190.903 203.299 191.227 203.449 191.506C203.604 191.779 203.805 191.986 204.052 192.129C204.305 192.271 204.57 192.343 204.849 192.343C205.135 192.343 205.4 192.271 205.647 192.129C205.9 191.98 206.101 191.766 206.25 191.487C206.405 191.208 206.483 190.884 206.483 190.514ZM213.62 190.407C213.62 190.608 213.607 190.79 213.581 190.952H209.486C209.519 191.38 209.677 191.723 209.963 191.983C210.248 192.242 210.598 192.372 211.013 192.372C211.61 192.372 212.031 192.122 212.278 191.623H213.474C213.312 192.116 213.017 192.521 212.589 192.839C212.167 193.15 211.642 193.306 211.013 193.306C210.501 193.306 210.041 193.192 209.632 192.965C209.23 192.732 208.912 192.407 208.679 191.992C208.452 191.571 208.338 191.085 208.338 190.534C208.338 189.982 208.449 189.499 208.669 189.084C208.896 188.663 209.211 188.339 209.613 188.112C210.021 187.885 210.488 187.771 211.013 187.771C211.519 187.771 211.97 187.881 212.365 188.102C212.761 188.322 213.069 188.634 213.289 189.036C213.51 189.431 213.62 189.888 213.62 190.407ZM212.462 190.057C212.456 189.648 212.31 189.321 212.025 189.075C211.739 188.828 211.386 188.705 210.965 188.705C210.582 188.705 210.254 188.828 209.982 189.075C209.71 189.314 209.548 189.642 209.496 190.057H212.462ZM219.623 190.407C219.623 190.608 219.61 190.79 219.584 190.952H215.489C215.522 191.38 215.68 191.723 215.966 191.983C216.251 192.242 216.601 192.372 217.016 192.372C217.613 192.372 218.034 192.122 218.281 191.623H219.477C219.315 192.116 219.02 192.521 218.592 192.839C218.17 193.15 217.645 193.306 217.016 193.306C216.504 193.306 216.044 193.192 215.635 192.965C215.233 192.732 214.915 192.407 214.682 191.992C214.455 191.571 214.341 191.085 214.341 190.534C214.341 189.982 214.452 189.499 214.672 189.084C214.899 188.663 215.214 188.339 215.616 188.112C216.024 187.885 216.491 187.771 217.016 187.771C217.522 187.771 217.973 187.881 218.368 188.102C218.764 188.322 219.072 188.634 219.292 189.036C219.513 189.431 219.623 189.888 219.623 190.407ZM218.465 190.057C218.459 189.648 218.313 189.321 218.028 189.075C217.742 188.828 217.389 188.705 216.968 188.705C216.585 188.705 216.257 188.828 215.985 189.075C215.713 189.314 215.551 189.642 215.499 190.057H218.465ZM223.418 187.771C223.839 187.771 224.215 187.859 224.546 188.034C224.883 188.209 225.146 188.468 225.334 188.812C225.522 189.156 225.616 189.571 225.616 190.057V193.218H224.517V190.222C224.517 189.742 224.397 189.376 224.157 189.123C223.917 188.864 223.59 188.734 223.175 188.734C222.76 188.734 222.429 188.864 222.183 189.123C221.943 189.376 221.823 189.742 221.823 190.222V193.218H220.714V187.859H221.823V188.472C222.004 188.251 222.235 188.079 222.513 187.956C222.799 187.833 223.1 187.771 223.418 187.771ZM230.851 188.763V191.73C230.851 191.931 230.896 192.077 230.987 192.168C231.084 192.252 231.246 192.294 231.473 192.294H232.154V193.218H231.279C230.779 193.218 230.397 193.101 230.131 192.868C229.865 192.634 229.732 192.255 229.732 191.73V188.763H229.1V187.859H229.732V186.526H230.851V187.859H232.154V188.763H230.851ZM235.948 187.771C236.356 187.771 236.72 187.859 237.037 188.034C237.362 188.209 237.614 188.468 237.796 188.812C237.984 189.156 238.078 189.571 238.078 190.057V193.218H236.979V190.222C236.979 189.742 236.859 189.376 236.619 189.123C236.379 188.864 236.052 188.734 235.637 188.734C235.222 188.734 234.891 188.864 234.645 189.123C234.405 189.376 234.285 189.742 234.285 190.222V193.218H233.176V186.02H234.285V188.481C234.473 188.254 234.709 188.079 234.995 187.956C235.287 187.833 235.604 187.771 235.948 187.771ZM244.404 190.407C244.404 190.608 244.391 190.79 244.365 190.952H240.27C240.303 191.38 240.462 191.723 240.747 191.983C241.032 192.242 241.383 192.372 241.798 192.372C242.394 192.372 242.816 192.122 243.062 191.623H244.258C244.096 192.116 243.801 192.521 243.373 192.839C242.952 193.15 242.426 193.306 241.798 193.306C241.285 193.306 240.825 193.192 240.416 192.965C240.014 192.732 239.697 192.407 239.463 191.992C239.236 191.571 239.123 191.085 239.123 190.534C239.123 189.982 239.233 189.499 239.453 189.084C239.68 188.663 239.995 188.339 240.397 188.112C240.805 187.885 241.272 187.771 241.798 187.771C242.303 187.771 242.754 187.881 243.149 188.102C243.545 188.322 243.853 188.634 244.073 189.036C244.294 189.431 244.404 189.888 244.404 190.407ZM243.247 190.057C243.24 189.648 243.094 189.321 242.809 189.075C242.524 188.828 242.17 188.705 241.749 188.705C241.366 188.705 241.039 188.828 240.767 189.075C240.494 189.314 240.332 189.642 240.28 190.057H243.247ZM112.991 201.149C112.79 201.149 112.622 201.081 112.486 200.945C112.349 200.808 112.281 200.64 112.281 200.439C112.281 200.238 112.349 200.069 112.486 199.933C112.622 199.797 112.79 199.729 112.991 199.729C113.186 199.729 113.351 199.797 113.487 199.933C113.624 200.069 113.692 200.238 113.692 200.439C113.692 200.64 113.624 200.808 113.487 200.945C113.351 201.081 113.186 201.149 112.991 201.149ZM113.536 201.859V207.218H112.427V201.859H113.536ZM117.696 201.771C118.117 201.771 118.493 201.859 118.824 202.034C119.161 202.209 119.424 202.468 119.612 202.812C119.8 203.156 119.894 203.571 119.894 204.057V207.218H118.795V204.222C118.795 203.742 118.675 203.376 118.435 203.123C118.195 202.864 117.868 202.734 117.453 202.734C117.038 202.734 116.707 202.864 116.461 203.123C116.221 203.376 116.101 203.742 116.101 204.222V207.218H114.992V201.859H116.101V202.472C116.282 202.251 116.512 202.079 116.791 201.956C117.077 201.833 117.378 201.771 117.696 201.771ZM120.939 204.514C120.939 203.976 121.049 203.499 121.269 203.084C121.496 202.669 121.801 202.348 122.184 202.121C122.573 201.888 123.004 201.771 123.477 201.771C123.827 201.771 124.171 201.849 124.508 202.005C124.852 202.154 125.124 202.355 125.325 202.608V200.02H126.444V207.218H125.325V206.411C125.144 206.67 124.891 206.884 124.567 207.053C124.249 207.221 123.883 207.306 123.468 207.306C123.001 207.306 122.573 207.189 122.184 206.955C121.801 206.715 121.496 206.385 121.269 205.963C121.049 205.535 120.939 205.052 120.939 204.514ZM125.325 204.534C125.325 204.164 125.247 203.843 125.092 203.571C124.943 203.298 124.745 203.091 124.499 202.948C124.252 202.805 123.986 202.734 123.701 202.734C123.416 202.734 123.15 202.805 122.903 202.948C122.657 203.084 122.456 203.289 122.3 203.561C122.151 203.827 122.077 204.144 122.077 204.514C122.077 204.884 122.151 205.208 122.3 205.487C122.456 205.766 122.657 205.98 122.903 206.129C123.156 206.271 123.422 206.343 123.701 206.343C123.986 206.343 124.252 206.271 124.499 206.129C124.745 205.986 124.943 205.779 125.092 205.506C125.247 205.227 125.325 204.903 125.325 204.534ZM132.754 201.859V207.218H131.645V206.586C131.47 206.806 131.24 206.981 130.954 207.111C130.675 207.234 130.377 207.296 130.059 207.296C129.638 207.296 129.259 207.208 128.921 207.033C128.591 206.858 128.328 206.599 128.134 206.255C127.946 205.911 127.852 205.496 127.852 205.01V201.859H128.951V204.845C128.951 205.325 129.071 205.694 129.311 205.954C129.55 206.206 129.878 206.333 130.293 206.333C130.708 206.333 131.035 206.206 131.275 205.954C131.522 205.694 131.645 205.325 131.645 204.845V201.859H132.754ZM136.162 207.306C135.74 207.306 135.361 207.231 135.024 207.082C134.693 206.926 134.431 206.719 134.236 206.459C134.042 206.194 133.938 205.898 133.925 205.574H135.073C135.092 205.801 135.199 205.992 135.394 206.148C135.595 206.297 135.844 206.372 136.142 206.372C136.454 206.372 136.694 206.313 136.862 206.197C137.037 206.074 137.125 205.918 137.125 205.73C137.125 205.529 137.028 205.38 136.833 205.282C136.645 205.185 136.343 205.078 135.928 204.961C135.526 204.851 135.199 204.744 134.946 204.641C134.693 204.537 134.473 204.378 134.285 204.164C134.103 203.95 134.012 203.668 134.012 203.318C134.012 203.032 134.097 202.773 134.265 202.54C134.434 202.3 134.674 202.112 134.985 201.975C135.303 201.839 135.666 201.771 136.074 201.771C136.684 201.771 137.173 201.927 137.543 202.238C137.919 202.543 138.12 202.961 138.146 203.493H137.037C137.018 203.253 136.921 203.062 136.746 202.919C136.57 202.776 136.334 202.705 136.035 202.705C135.744 202.705 135.52 202.76 135.364 202.87C135.209 202.981 135.131 203.126 135.131 203.308C135.131 203.451 135.183 203.571 135.287 203.668C135.39 203.765 135.517 203.843 135.666 203.901C135.815 203.953 136.035 204.021 136.327 204.106C136.716 204.209 137.034 204.316 137.28 204.427C137.533 204.53 137.751 204.686 137.932 204.893C138.114 205.101 138.208 205.376 138.214 205.72C138.214 206.025 138.13 206.297 137.961 206.537C137.793 206.777 137.553 206.965 137.242 207.101C136.937 207.237 136.577 207.306 136.162 207.306ZM140.706 202.763V205.73C140.706 205.931 140.751 206.077 140.842 206.168C140.939 206.252 141.101 206.294 141.328 206.294H142.009V207.218H141.134C140.635 207.218 140.252 207.101 139.986 206.868C139.72 206.634 139.587 206.255 139.587 205.73V202.763H138.955V201.859H139.587V200.526H140.706V201.859H142.009V202.763H140.706ZM144.14 202.637C144.302 202.365 144.516 202.154 144.782 202.005C145.054 201.849 145.375 201.771 145.745 201.771V202.919H145.463C145.028 202.919 144.698 203.029 144.471 203.25C144.25 203.47 144.14 203.853 144.14 204.397V207.218H143.031V201.859H144.14V202.637ZM151.588 201.859L148.301 209.737H147.153L148.242 207.13L146.132 201.859H147.367L148.875 205.944L150.441 201.859H151.588ZM153.028 199.466L152.911 201.46H152.153L152.026 199.466H153.028ZM156.042 207.306C155.621 207.306 155.241 207.231 154.904 207.082C154.573 206.926 154.311 206.719 154.116 206.459C153.922 206.194 153.818 205.898 153.805 205.574H154.953C154.972 205.801 155.079 205.992 155.274 206.148C155.475 206.297 155.724 206.372 156.023 206.372C156.334 206.372 156.574 206.313 156.742 206.197C156.917 206.074 157.005 205.918 157.005 205.73C157.005 205.529 156.908 205.38 156.713 205.282C156.525 205.185 156.224 205.078 155.809 204.961C155.407 204.851 155.079 204.744 154.826 204.641C154.573 204.537 154.353 204.378 154.165 204.164C153.983 203.95 153.893 203.668 153.893 203.318C153.893 203.032 153.977 202.773 154.145 202.54C154.314 202.3 154.554 202.112 154.865 201.975C155.183 201.839 155.546 201.771 155.955 201.771C156.564 201.771 157.054 201.927 157.423 202.238C157.799 202.543 158 202.961 158.026 203.493H156.917C156.898 203.253 156.801 203.062 156.626 202.919C156.451 202.776 156.214 202.705 155.916 202.705C155.624 202.705 155.4 202.76 155.245 202.87C155.089 202.981 155.011 203.126 155.011 203.308C155.011 203.451 155.063 203.571 155.167 203.668C155.27 203.765 155.397 203.843 155.546 203.901C155.695 203.953 155.916 204.021 156.207 204.106C156.597 204.209 156.914 204.316 157.161 204.427C157.414 204.53 157.631 204.686 157.812 204.893C157.994 205.101 158.088 205.376 158.094 205.72C158.094 206.025 158.01 206.297 157.841 206.537C157.673 206.777 157.433 206.965 157.122 207.101C156.817 207.237 156.457 207.306 156.042 207.306ZM163.764 207.306C163.343 207.306 162.964 207.231 162.626 207.082C162.296 206.926 162.033 206.719 161.839 206.459C161.644 206.194 161.54 205.898 161.527 205.574H162.675C162.694 205.801 162.801 205.992 162.996 206.148C163.197 206.297 163.447 206.372 163.745 206.372C164.056 206.372 164.296 206.313 164.465 206.197C164.64 206.074 164.727 205.918 164.727 205.73C164.727 205.529 164.63 205.38 164.435 205.282C164.247 205.185 163.946 205.078 163.531 204.961C163.129 204.851 162.801 204.744 162.549 204.641C162.296 204.537 162.075 204.378 161.887 204.164C161.706 203.95 161.615 203.668 161.615 203.318C161.615 203.032 161.699 202.773 161.868 202.54C162.036 202.3 162.276 202.112 162.587 201.975C162.905 201.839 163.268 201.771 163.677 201.771C164.286 201.771 164.776 201.927 165.145 202.238C165.522 202.543 165.723 202.961 165.749 203.493H164.64C164.62 203.253 164.523 203.062 164.348 202.919C164.173 202.776 163.936 202.705 163.638 202.705C163.346 202.705 163.122 202.76 162.967 202.87C162.811 202.981 162.733 203.126 162.733 203.308C162.733 203.451 162.785 203.571 162.889 203.668C162.993 203.765 163.119 203.843 163.268 203.901C163.417 203.953 163.638 204.021 163.93 204.106C164.319 204.209 164.636 204.316 164.883 204.427C165.136 204.53 165.353 204.686 165.535 204.893C165.716 205.101 165.81 205.376 165.817 205.72C165.817 206.025 165.732 206.297 165.564 206.537C165.395 206.777 165.155 206.965 164.844 207.101C164.539 207.237 164.179 207.306 163.764 207.306ZM168.308 202.763V205.73C168.308 205.931 168.354 206.077 168.444 206.168C168.542 206.252 168.704 206.294 168.931 206.294H169.612V207.218H168.736C168.237 207.218 167.854 207.101 167.589 206.868C167.323 206.634 167.19 206.255 167.19 205.73V202.763H166.558V201.859H167.19V200.526H168.308V201.859H169.612V202.763H168.308ZM170.264 204.514C170.264 203.976 170.374 203.499 170.595 203.084C170.822 202.669 171.126 202.348 171.509 202.121C171.898 201.888 172.326 201.771 172.793 201.771C173.214 201.771 173.581 201.856 173.892 202.024C174.21 202.186 174.463 202.39 174.651 202.637V201.859H175.769V207.218H174.651V206.42C174.463 206.673 174.206 206.884 173.882 207.053C173.558 207.221 173.188 207.306 172.773 207.306C172.313 207.306 171.892 207.189 171.509 206.955C171.126 206.715 170.822 206.385 170.595 205.963C170.374 205.535 170.264 205.052 170.264 204.514ZM174.651 204.534C174.651 204.164 174.573 203.843 174.417 203.571C174.268 203.298 174.07 203.091 173.824 202.948C173.577 202.805 173.312 202.734 173.026 202.734C172.741 202.734 172.475 202.805 172.229 202.948C171.982 203.084 171.781 203.289 171.626 203.561C171.477 203.827 171.402 204.144 171.402 204.514C171.402 204.884 171.477 205.208 171.626 205.487C171.781 205.766 171.982 205.98 172.229 206.129C172.482 206.271 172.747 206.343 173.026 206.343C173.312 206.343 173.577 206.271 173.824 206.129C174.07 205.986 174.268 205.779 174.417 205.506C174.573 205.227 174.651 204.903 174.651 204.534ZM179.929 201.771C180.351 201.771 180.727 201.859 181.058 202.034C181.395 202.209 181.657 202.468 181.846 202.812C182.034 203.156 182.128 203.571 182.128 204.057V207.218H181.029V204.222C181.029 203.742 180.909 203.376 180.669 203.123C180.429 202.864 180.101 202.734 179.686 202.734C179.271 202.734 178.941 202.864 178.694 203.123C178.454 203.376 178.334 203.742 178.334 204.222V207.218H177.225V201.859H178.334V202.472C178.516 202.251 178.746 202.079 179.025 201.956C179.31 201.833 179.612 201.771 179.929 201.771ZM183.172 204.514C183.172 203.976 183.283 203.499 183.503 203.084C183.73 202.669 184.035 202.348 184.417 202.121C184.806 201.888 185.238 201.771 185.711 201.771C186.061 201.771 186.405 201.849 186.742 202.005C187.086 202.154 187.358 202.355 187.559 202.608V200.02H188.677V207.218H187.559V206.411C187.377 206.67 187.124 206.884 186.8 207.053C186.483 207.221 186.116 207.306 185.701 207.306C185.234 207.306 184.806 207.189 184.417 206.955C184.035 206.715 183.73 206.385 183.503 205.963C183.283 205.535 183.172 205.052 183.172 204.514ZM187.559 204.534C187.559 204.164 187.481 203.843 187.326 203.571C187.176 203.298 186.979 203.091 186.732 202.948C186.486 202.805 186.22 202.734 185.935 202.734C185.649 202.734 185.383 202.805 185.137 202.948C184.891 203.084 184.69 203.289 184.534 203.561C184.385 203.827 184.31 204.144 184.31 204.514C184.31 204.884 184.385 205.208 184.534 205.487C184.69 205.766 184.891 205.98 185.137 206.129C185.39 206.271 185.656 206.343 185.935 206.343C186.22 206.343 186.486 206.271 186.732 206.129C186.979 205.986 187.176 205.779 187.326 205.506C187.481 205.227 187.559 204.903 187.559 204.534ZM189.764 204.514C189.764 203.976 189.874 203.499 190.095 203.084C190.322 202.669 190.627 202.348 191.009 202.121C191.398 201.888 191.826 201.771 192.293 201.771C192.715 201.771 193.081 201.856 193.392 202.024C193.71 202.186 193.963 202.39 194.151 202.637V201.859H195.269V207.218H194.151V206.42C193.963 206.673 193.707 206.884 193.382 207.053C193.058 207.221 192.689 207.306 192.274 207.306C191.813 207.306 191.392 207.189 191.009 206.955C190.627 206.715 190.322 206.385 190.095 205.963C189.874 205.535 189.764 205.052 189.764 204.514ZM194.151 204.534C194.151 204.164 194.073 203.843 193.917 203.571C193.768 203.298 193.57 203.091 193.324 202.948C193.078 202.805 192.812 202.734 192.527 202.734C192.241 202.734 191.975 202.805 191.729 202.948C191.483 203.084 191.282 203.289 191.126 203.561C190.977 203.827 190.902 204.144 190.902 204.514C190.902 204.884 190.977 205.208 191.126 205.487C191.282 205.766 191.483 205.98 191.729 206.129C191.982 206.271 192.248 206.343 192.527 206.343C192.812 206.343 193.078 206.271 193.324 206.129C193.57 205.986 193.768 205.779 193.917 205.506C194.073 205.227 194.151 204.903 194.151 204.534ZM197.835 202.637C197.997 202.365 198.211 202.154 198.476 202.005C198.749 201.849 199.07 201.771 199.439 201.771V202.919H199.157C198.723 202.919 198.392 203.029 198.165 203.25C197.945 203.47 197.835 203.853 197.835 204.397V207.218H196.726V201.859H197.835V202.637ZM200.089 204.514C200.089 203.976 200.199 203.499 200.42 203.084C200.647 202.669 200.951 202.348 201.334 202.121C201.723 201.888 202.154 201.771 202.628 201.771C202.978 201.771 203.321 201.849 203.659 202.005C204.002 202.154 204.275 202.355 204.476 202.608V200.02H205.594V207.218H204.476V206.411C204.294 206.67 204.041 206.884 203.717 207.053C203.399 207.221 203.033 207.306 202.618 207.306C202.151 207.306 201.723 207.189 201.334 206.955C200.951 206.715 200.647 206.385 200.42 205.963C200.199 205.535 200.089 205.052 200.089 204.514ZM204.476 204.534C204.476 204.164 204.398 203.843 204.242 203.571C204.093 203.298 203.895 203.091 203.649 202.948C203.402 202.805 203.137 202.734 202.851 202.734C202.566 202.734 202.3 202.805 202.054 202.948C201.807 203.084 201.606 203.289 201.451 203.561C201.302 203.827 201.227 204.144 201.227 204.514C201.227 204.884 201.302 205.208 201.451 205.487C201.606 205.766 201.807 205.98 202.054 206.129C202.307 206.271 202.572 206.343 202.851 206.343C203.137 206.343 203.402 206.271 203.649 206.129C203.895 205.986 204.093 205.779 204.242 205.506C204.398 205.227 204.476 204.903 204.476 204.534ZM209.208 204.514C209.208 203.976 209.318 203.499 209.538 203.084C209.765 202.669 210.07 202.348 210.452 202.121C210.842 201.888 211.273 201.771 211.746 201.771C212.096 201.771 212.44 201.849 212.777 202.005C213.121 202.154 213.393 202.355 213.594 202.608V200.02H214.713V207.218H213.594V206.411C213.413 206.67 213.16 206.884 212.835 207.053C212.518 207.221 212.151 207.306 211.736 207.306C211.269 207.306 210.842 207.189 210.452 206.955C210.07 206.715 209.765 206.385 209.538 205.963C209.318 205.535 209.208 205.052 209.208 204.514ZM213.594 204.534C213.594 204.164 213.516 203.843 213.361 203.571C213.212 203.298 213.014 203.091 212.767 202.948C212.521 202.805 212.255 202.734 211.97 202.734C211.684 202.734 211.419 202.805 211.172 202.948C210.926 203.084 210.725 203.289 210.569 203.561C210.42 203.827 210.345 204.144 210.345 204.514C210.345 204.884 210.42 205.208 210.569 205.487C210.725 205.766 210.926 205.98 211.172 206.129C211.425 206.271 211.691 206.343 211.97 206.343C212.255 206.343 212.521 206.271 212.767 206.129C213.014 205.986 213.212 205.779 213.361 205.506C213.516 205.227 213.594 204.903 213.594 204.534ZM221.022 201.859V207.218H219.914V206.586C219.739 206.806 219.508 206.981 219.223 207.111C218.944 207.234 218.646 207.296 218.328 207.296C217.907 207.296 217.527 207.208 217.19 207.033C216.86 206.858 216.597 206.599 216.402 206.255C216.214 205.911 216.12 205.496 216.12 205.01V201.859H217.219V204.845C217.219 205.325 217.339 205.694 217.579 205.954C217.819 206.206 218.147 206.333 218.562 206.333C218.977 206.333 219.304 206.206 219.544 205.954C219.79 205.694 219.914 205.325 219.914 204.845V201.859H221.022ZM228.973 201.771C229.394 201.771 229.771 201.859 230.101 202.034C230.438 202.209 230.701 202.468 230.889 202.812C231.084 203.156 231.181 203.571 231.181 204.057V207.218H230.082V204.222C230.082 203.742 229.962 203.376 229.722 203.123C229.482 202.864 229.155 202.734 228.74 202.734C228.325 202.734 227.994 202.864 227.747 203.123C227.508 203.376 227.388 203.742 227.388 204.222V207.218H226.288V204.222C226.288 203.742 226.169 203.376 225.929 203.123C225.689 202.864 225.361 202.734 224.946 202.734C224.531 202.734 224.201 202.864 223.954 203.123C223.714 203.376 223.594 203.742 223.594 204.222V207.218H222.485V201.859H223.594V202.472C223.776 202.251 224.006 202.079 224.285 201.956C224.564 201.833 224.862 201.771 225.18 201.771C225.608 201.771 225.99 201.862 226.327 202.044C226.665 202.225 226.924 202.488 227.105 202.831C227.268 202.507 227.52 202.251 227.864 202.063C228.208 201.869 228.577 201.771 228.973 201.771ZM239.079 201.771C239.501 201.771 239.877 201.859 240.208 202.034C240.545 202.209 240.807 202.468 240.995 202.812C241.19 203.156 241.287 203.571 241.287 204.057V207.218H240.188V204.222C240.188 203.742 240.068 203.376 239.828 203.123C239.588 202.864 239.261 202.734 238.846 202.734C238.431 202.734 238.1 202.864 237.854 203.123C237.614 203.376 237.494 203.742 237.494 204.222V207.218H236.395V204.222C236.395 203.742 236.275 203.376 236.035 203.123C235.795 202.864 235.468 202.734 235.053 202.734C234.638 202.734 234.307 202.864 234.06 203.123C233.821 203.376 233.701 203.742 233.701 204.222V207.218H232.592V201.859H233.701V202.472C233.882 202.251 234.112 202.079 234.391 201.956C234.67 201.833 234.968 201.771 235.286 201.771C235.714 201.771 236.097 201.862 236.434 202.044C236.771 202.225 237.03 202.488 237.212 202.831C237.374 202.507 237.627 202.251 237.97 202.063C238.314 201.869 238.684 201.771 239.079 201.771ZM247.522 201.859L244.235 209.737H243.087L244.177 207.13L242.066 201.859H243.301L244.809 205.944L246.375 201.859H247.522ZM172.64 216.763V219.73C172.64 219.931 172.685 220.077 172.776 220.168C172.873 220.252 173.035 220.294 173.262 220.294H173.943V221.218H173.068C172.568 221.218 172.186 221.101 171.92 220.868C171.654 220.634 171.521 220.255 171.521 219.73V216.763H170.889V215.859H171.521V214.526H172.64V215.859H173.943V216.763H172.64ZM179.877 218.407C179.877 218.608 179.864 218.79 179.838 218.952H175.743C175.775 219.38 175.934 219.723 176.22 219.983C176.505 220.242 176.855 220.372 177.27 220.372C177.867 220.372 178.288 220.122 178.534 219.623H179.731C179.569 220.116 179.274 220.521 178.846 220.839C178.424 221.15 177.899 221.306 177.27 221.306C176.758 221.306 176.297 221.192 175.889 220.965C175.487 220.732 175.169 220.407 174.936 219.992C174.709 219.571 174.595 219.085 174.595 218.534C174.595 217.982 174.705 217.499 174.926 217.084C175.153 216.663 175.467 216.339 175.869 216.112C176.278 215.885 176.745 215.771 177.27 215.771C177.776 215.771 178.226 215.881 178.622 216.102C179.018 216.322 179.326 216.634 179.546 217.036C179.766 217.431 179.877 217.888 179.877 218.407ZM178.719 218.057C178.713 217.648 178.567 217.321 178.282 217.075C177.996 216.828 177.643 216.705 177.221 216.705C176.839 216.705 176.511 216.828 176.239 217.075C175.967 217.314 175.805 217.642 175.753 218.057H178.719ZM183.263 218.504L184.995 221.218H183.74L182.582 219.399L181.493 221.218H180.336L182.067 218.582L180.336 215.859H181.59L182.748 217.678L183.837 215.859H184.995L183.263 218.504ZM187.115 216.763V219.73C187.115 219.931 187.161 220.077 187.251 220.168C187.349 220.252 187.511 220.294 187.738 220.294H188.419V221.218H187.543C187.044 221.218 186.661 221.101 186.395 220.868C186.13 220.634 185.997 220.255 185.997 219.73V216.763H185.364V215.859H185.997V214.526H187.115V215.859H188.419V216.763H187.115Z" fill="#595964"/>
<path d="M176.367 110.102H167.664C167.178 110.102 166.712 109.951 166.369 109.682C166.025 109.414 165.832 109.05 165.832 108.67V102.588C165.832 102.208 166.025 101.844 166.369 101.575C166.712 101.307 167.178 101.156 167.664 101.156H176.367" stroke="#9056E8" stroke-width="1.2158" stroke-linecap="round" stroke-linejoin="round"/>
<path d="M176.368 113.322H171.787" stroke="#9056E8" stroke-width="1.2158" stroke-linecap="round" stroke-linejoin="round"/>
<path d="M187.362 100.799H184.613" stroke="#9056E8" stroke-width="1.2158" stroke-linecap="round" stroke-linejoin="round"/>
<path d="M187.362 104.019H184.613" stroke="#9056E8" stroke-width="1.2158" stroke-linecap="round" stroke-linejoin="round"/>
<path d="M190.567 97.5781H181.406C180.9 97.5781 180.49 97.8985 180.49 98.2938V112.606C180.49 113.002 180.9 113.322 181.406 113.322H190.567C191.073 113.322 191.484 113.002 191.484 112.606V98.2938C191.484 97.8985 191.073 97.5781 190.567 97.5781Z" stroke="#9056E8" stroke-width="1.2158" stroke-linecap="round" stroke-linejoin="round"/>
<path d="M174.076 110.102V113.322" stroke="#9056E8" stroke-width="1.2158" stroke-linecap="round" stroke-linejoin="round"/>
<path d="M185.987 111.175C186.998 111.175 187.819 110.534 187.819 109.744C187.819 108.954 186.998 108.313 185.987 108.313C184.975 108.313 184.154 108.954 184.154 109.744C184.154 110.534 184.975 111.175 185.987 111.175Z" fill="#9056E8"/>
<defs>
<filter id="filter0_d_595_805" x="10.9657" y="0.0192475" width="339.069" height="301.109" filterUnits="userSpaceOnUse" color-interpolation-filters="sRGB">
<feFlood flood-opacity="0" result="BackgroundImageFix"/>
<feColorMatrix in="SourceAlpha" type="matrix" values="0 0 0 0 0 0 0 0 0 0 0 0 0 0 0 0 0 0 127 0" result="hardAlpha"/>
<feOffset dy="1.94347"/>
<feGaussianBlur stdDeviation="9.71736"/>
<feComposite in2="hardAlpha" operator="out"/>
<feColorMatrix type="matrix" values="0 0 0 0 0 0 0 0 0 0 0 0 0 0 0 0 0 0 0.25 0"/>
<feBlend mode="normal" in2="BackgroundImageFix" result="effect1_dropShadow_595_805"/>
<feBlend mode="normal" in="SourceGraphic" in2="effect1_dropShadow_595_805" result="shape"/>
</filter>
</defs>
</svg>
