<svg width="29" height="29" viewBox="0 0 29 29" fill="none" xmlns="http://www.w3.org/2000/svg">
<path d="M20.0691 4.39502H8.39865C5.82048 4.39502 3.73047 6.48504 3.73047 9.0632V20.7337C3.73047 23.3118 5.82048 25.4018 8.39865 25.4018H20.0691C22.6473 25.4018 24.7373 23.3118 24.7373 20.7337V9.0632C24.7373 6.48504 22.6473 4.39502 20.0691 4.39502Z" stroke="#493A8B" stroke-width="3.29519" stroke-linejoin="round"/>
<path d="M14.2326 19.5668C16.8108 19.5668 18.9008 17.4768 18.9008 14.8987C18.9008 12.3205 16.8108 10.2305 14.2326 10.2305C11.6545 10.2305 9.56445 12.3205 9.56445 14.8987C9.56445 17.4768 11.6545 19.5668 14.2326 19.5668Z" stroke="#493A8B" stroke-width="3.29519" stroke-linejoin="round"/>
<path d="M20.7811 9.90594C21.4973 9.90594 22.0778 9.32539 22.0778 8.60922C22.0778 7.89304 21.4973 7.3125 20.7811 7.3125C20.0649 7.3125 19.4844 7.89304 19.4844 8.60922C19.4844 9.32539 20.0649 9.90594 20.7811 9.90594Z" fill="#493A8B"/>
</svg>
