<svg width="29" height="29" viewBox="0 0 29 29" fill="none" xmlns="http://www.w3.org/2000/svg">
<path d="M5.34776 7.89621C6.63685 7.89621 7.68186 6.8512 7.68186 5.56212C7.68186 4.27304 6.63685 3.22803 5.34776 3.22803C4.05868 3.22803 3.01367 4.27304 3.01367 5.56212C3.01367 6.8512 4.05868 7.89621 5.34776 7.89621Z" stroke="#493A8B" stroke-width="2.47139"/>
<path d="M7.68186 11.3975H3.01367V25.9855H7.68186V11.3975Z" stroke="#493A8B" stroke-width="2.47139" stroke-linejoin="round"/>
<path d="M12.3496 16.9409V25.9855H16.4343V17.8162C16.4343 16.3574 17.3096 15.1904 18.7684 15.1904C20.2272 15.1904 21.1025 16.6492 21.1025 17.8162V25.9855H25.1871V16.9409C25.1871 15.1904 23.1448 11.3975 18.7684 11.3975C14.3919 11.3975 12.3496 15.1904 12.3496 16.9409Z" stroke="#493A8B" stroke-width="2.47139" stroke-linejoin="round"/>
</svg>
