<svg width="50" height="43" viewBox="0 0 50 43" fill="none" xmlns="http://www.w3.org/2000/svg">
<path d="M1.34446 40.6655L6.92057 31.134C7.51806 30.1127 8.99996 30.1296 9.57397 31.1643L14.8617 40.6958C15.4263 41.7136 14.6903 42.9637 13.5263 42.9637H2.66253C1.48311 42.9637 0.748908 41.6835 1.34446 40.6655Z" fill="#553F80"/>
<path d="M30.3685 28.9266L26.7298 22.5912C26.1428 21.5692 24.6684 21.5692 24.0814 22.5912L20.4428 28.9266C19.8581 29.9447 20.593 31.2142 21.767 31.2142H29.0443C30.2183 31.2142 30.9532 29.9447 30.3685 28.9266Z" fill="#945DB1"/>
<path d="M10.9056 24.0294L23.5022 2.29723C24.0928 1.27822 25.5659 1.28322 26.1497 2.3062L48.0668 40.7161C48.6477 41.7341 47.9126 43 46.7405 43H22.6874C22.1593 43 21.6686 42.7271 21.39 42.2783L20.0048 40.0467C19.3733 39.0294 20.1049 37.7143 21.3022 37.7143H37.5824C38.7608 37.7143 39.4952 36.4362 38.9017 35.4182L26.1299 13.5092C25.546 12.5076 24.1027 12.4964 23.5034 13.489L14.9419 27.6687C14.3655 28.6233 12.9935 28.6583 12.3692 27.7342L10.9613 25.65C10.6338 25.1651 10.6121 24.5356 10.9056 24.0294Z" fill="#945DB1"/>
</svg>
