<svg width="242" height="66" viewBox="0 0 242 66" fill="none" xmlns="http://www.w3.org/2000/svg">
<g filter="url(#filter0_d_595_1167)">
<path d="M22.329 57.293L14.1179 42.2084C13.7795 41.5867 12.8461 41.7437 12.7298 42.442C12.7024 42.6063 12.7315 42.7763 12.8116 42.9225C17.8767 52.1724 22.3017 59.0409 20.6206 60.2927L21.5446 59.6152C21.6493 59.5384 21.7432 59.4478 21.8237 59.3458L22.1943 58.8764C22.5521 58.4231 22.6051 57.8002 22.329 57.293Z" fill="#A5A0A6"/>
<path d="M1.25266 58.1481L10.2066 42.6741C10.7694 41.7015 12.179 41.7175 12.7196 42.7027L21.2105 58.1766C21.7379 59.1378 21.0424 60.3128 19.9459 60.3128H2.5011C1.39012 60.3128 0.696236 59.1096 1.25266 58.1481Z" fill="#553F80"/>
<path d="M43.5115 43.5166L43.8515 43.3635C44.6247 43.0153 44.9321 42.0784 44.5155 41.3398L41.2525 35.5544L38.258 30.2731C37.9129 29.6644 37.0063 29.7674 36.8064 30.4379C36.7442 30.6466 36.771 30.8728 36.8798 31.0614C40.8503 37.941 44.3901 43.1786 41.9016 43.9923L43.3154 43.5884C43.3824 43.5692 43.448 43.5452 43.5115 43.5166Z" fill="#EEEEEE"/>
<path d="M42.7672 41.6638L36.5301 30.6847C35.9772 29.7115 34.5747 29.7115 34.0218 30.6847L27.7847 41.6638C27.2384 42.6254 27.9329 43.8187 29.0388 43.8187H41.513C42.6189 43.8187 43.3134 42.6254 42.7672 41.6638Z" fill="#945DB1"/>
<path d="M66.354 61.0128L68.3947 58.2987C68.7367 57.8439 68.7793 57.2307 68.5036 56.733L53.0185 28.7756L36.9703 1.20371C36.6531 0.65869 35.8693 0.648526 35.5381 1.18514C35.3784 1.44378 35.3733 1.77125 35.5225 2.03605C52.4244 32.0264 66.6172 55.7614 67.4518 59.0455C67.5156 59.2967 67.3588 59.5392 67.2128 59.7533L66.354 61.0128Z" fill="#E3D5E8"/>
<path d="M14.9153 34.1192L33.2153 2.19974C33.7716 1.22934 35.173 1.23406 35.7227 2.20819L67.3314 58.2124C67.8741 59.174 67.1794 60.3638 66.0753 60.3638H31.1238C30.6224 60.3638 30.157 60.1034 29.8946 59.6761L27.11 55.1407C26.52 54.1797 27.2115 52.9436 28.3392 52.9436H53.3721C54.4821 52.9436 55.1761 51.7424 54.6216 50.7808L35.7042 17.9722C35.1541 17.0182 33.7809 17.0076 33.2163 17.9531L20.1965 39.7541C19.6532 40.6637 18.3474 40.6968 17.7588 39.8159L14.9673 35.6379C14.6631 35.1826 14.6429 34.5943 14.9153 34.1192Z" fill="#945DB1"/>
<path d="M21.8364 40.6643L35.0802 18.4233C35.4487 17.8045 35.0028 17.02 34.2826 17.02C33.9539 17.02 33.6498 17.1938 33.4829 17.4769L20.3376 39.7763C20.1495 40.0955 20.1838 40.4987 20.4232 40.7815C20.8096 41.2379 21.5305 41.1782 21.8364 40.6643Z" fill="#DCD9E4"/>
<path d="M83.2617 34.2606C83.2617 34.9443 83.1729 35.5615 82.9953 36.112C82.8266 36.6536 82.6001 37.1331 82.316 37.5505C82.0318 37.9678 81.6989 38.323 81.317 38.616C80.9352 38.909 80.5401 39.1488 80.1316 39.3353C79.7232 39.5217 79.3058 39.6594 78.8796 39.7482C78.4623 39.837 78.0671 39.8813 77.6942 39.8813H64.335V36.4183H77.6942C78.3602 36.4183 78.8752 36.223 79.2392 35.8323C79.6122 35.4416 79.7986 34.9177 79.7986 34.2606C79.7986 33.9409 79.7498 33.6479 79.6521 33.3815C79.5545 33.1152 79.4124 32.8843 79.2259 32.6889C79.0483 32.4936 78.8263 32.3426 78.56 32.2361C78.3024 32.1295 78.0139 32.0763 77.6942 32.0763H69.7293C69.1699 32.0763 68.5661 31.9786 67.9179 31.7832C67.2696 31.579 66.6658 31.2549 66.1064 30.8109C65.5559 30.3669 65.0942 29.7853 64.7212 29.0661C64.3572 28.3469 64.1751 27.4678 64.1751 26.4289C64.1751 25.39 64.3572 24.5153 64.7212 23.805C65.0942 23.0857 65.5559 22.5041 66.1064 22.0602C66.6658 21.6073 67.2696 21.2832 67.9179 21.0878C68.5661 20.8836 69.1699 20.7815 69.7293 20.7815H81.5168V24.2445H69.7293C69.0722 24.2445 68.5572 24.4443 68.1842 24.8439C67.8202 25.2435 67.6381 25.7718 67.6381 26.4289C67.6381 27.0948 67.8202 27.6232 68.1842 28.0139C68.5572 28.3957 69.0722 28.5866 69.7293 28.5866H77.6942H77.7208C78.0938 28.5955 78.4889 28.6488 78.9063 28.7464C79.3236 28.8352 79.7365 28.9773 80.1449 29.1726C80.5623 29.368 80.9574 29.6166 81.3304 29.9185C81.7033 30.2116 82.0318 30.5667 82.316 30.9841C82.609 31.4014 82.8399 31.8809 83.0086 32.4226C83.1773 32.9642 83.2617 33.5769 83.2617 34.2606ZM105.172 28.7731C105.172 29.5633 105.074 30.2693 104.879 30.8908C104.683 31.5124 104.417 32.0629 104.08 32.5424C103.751 33.013 103.369 33.4171 102.934 33.7545C102.499 34.0919 102.042 34.3672 101.562 34.5803C101.092 34.7934 100.612 34.9488 100.124 35.0464C99.6444 35.1441 99.1915 35.193 98.7653 35.193H90.9336V31.7299H98.7653C99.2093 31.6944 99.6089 31.6056 99.964 31.4636C100.328 31.3126 100.639 31.1128 100.896 30.8642C101.154 30.6156 101.354 30.3181 101.496 29.9718C101.638 29.6166 101.709 29.217 101.709 28.7731V27.2014C101.664 26.7663 101.571 26.3667 101.429 26.0027C101.287 25.6386 101.092 25.3278 100.843 25.0703C100.603 24.8128 100.31 24.613 99.964 24.4709C99.6177 24.32 99.2182 24.2445 98.7653 24.2445H90.9602C90.4985 24.2445 90.1477 24.3644 89.908 24.6041C89.6682 24.8439 89.5484 25.1902 89.5484 25.643V39.8813H86.0853V25.643C86.0853 24.7551 86.2452 24.0003 86.5648 23.3788C86.8934 22.7572 87.2974 22.2555 87.7769 21.8737C88.2653 21.4919 88.7936 21.2166 89.3619 21.0479C89.9302 20.8703 90.4541 20.7815 90.9336 20.7815H98.7653C99.5467 20.7815 100.248 20.8836 100.87 21.0878C101.491 21.2832 102.037 21.5496 102.508 21.887C102.988 22.2155 103.392 22.5974 103.72 23.0325C104.057 23.4676 104.333 23.9249 104.546 24.4043C104.768 24.875 104.928 25.3545 105.025 25.8428C105.123 26.3223 105.172 26.7752 105.172 27.2014V28.7731ZM123.845 32.0763H112.91V28.5866H123.845V32.0763ZM125.404 39.8813H112.91C112.431 39.8813 111.907 39.797 111.339 39.6283C110.77 39.4596 110.242 39.1843 109.754 38.8025C109.274 38.4118 108.87 37.9101 108.542 37.2974C108.222 36.6758 108.062 35.9166 108.062 35.0198V22.5263C108.062 22.2866 108.107 22.0602 108.195 21.847C108.284 21.6339 108.404 21.4475 108.555 21.2876C108.715 21.1278 108.901 21.0035 109.114 20.9147C109.327 20.8259 109.558 20.7815 109.807 20.7815H125.404V24.2445H111.525V35.0198C111.525 35.4727 111.645 35.819 111.885 36.0587C112.125 36.2985 112.475 36.4183 112.937 36.4183H125.404V39.8813ZM145.729 39.8813H133.236C132.916 39.8813 132.57 39.8458 132.197 39.7748C131.833 39.6949 131.469 39.575 131.105 39.4152C130.749 39.2553 130.407 39.0511 130.079 38.8025C129.75 38.545 129.457 38.2386 129.2 37.8835C128.951 37.5194 128.751 37.1021 128.6 36.6314C128.45 36.1519 128.374 35.6147 128.374 35.0198V25.643C128.374 25.3234 128.41 24.9815 128.481 24.6175C128.561 24.2445 128.68 23.8805 128.84 23.5253C129 23.1612 129.209 22.8149 129.466 22.4864C129.724 22.1578 130.03 21.8692 130.385 21.6206C130.749 21.3631 131.167 21.1589 131.637 21.0079C132.108 20.857 132.641 20.7815 133.236 20.7815H145.729V24.2445H133.236C132.783 24.2445 132.436 24.3644 132.197 24.6041C131.957 24.8439 131.837 25.1991 131.837 25.6697V35.0198C131.837 35.4638 131.957 35.8101 132.197 36.0587C132.445 36.2985 132.792 36.4183 133.236 36.4183H145.729V39.8813ZM166.267 24.2445H158.635V39.8813H155.172V24.2445H147.527V20.7815H166.267V24.2445ZM187.911 27.2014C187.911 27.9917 187.814 28.6976 187.618 29.3192C187.423 29.9407 187.156 30.4913 186.819 30.9708C186.491 31.4414 186.109 31.8454 185.674 32.1828C185.238 32.5202 184.781 32.7999 184.302 33.0219C183.831 33.235 183.352 33.3904 182.863 33.4881C182.384 33.5858 181.931 33.6346 181.505 33.6346L188.737 39.8813H183.383L176.164 33.6346H173.673V30.1716H181.505C181.94 30.1361 182.335 30.0473 182.69 29.9052C183.054 29.7543 183.365 29.5545 183.622 29.3058C183.889 29.0572 184.093 28.7598 184.235 28.4134C184.377 28.0583 184.448 27.6543 184.448 27.2014V25.017C184.448 24.8217 184.422 24.6752 184.368 24.5775C184.324 24.4709 184.262 24.3955 184.182 24.3511C184.111 24.2978 184.031 24.2667 183.942 24.2578C183.862 24.249 183.787 24.2445 183.716 24.2445H172.288V39.8813H168.825V22.5263C168.825 22.2866 168.869 22.0602 168.958 21.847C169.047 21.6339 169.167 21.4475 169.318 21.2876C169.477 21.1278 169.664 21.0035 169.877 20.9147C170.09 20.8259 170.321 20.7815 170.57 20.7815H183.716C184.488 20.7815 185.141 20.9236 185.674 21.2077C186.206 21.483 186.637 21.8337 186.966 22.2599C187.303 22.6773 187.543 23.1301 187.685 23.6185C187.836 24.1069 187.911 24.5642 187.911 24.9904V27.2014ZM210.101 38.1365C210.101 38.3851 210.057 38.616 209.968 38.8291C209.879 39.0422 209.755 39.2287 209.595 39.3885C209.435 39.5395 209.249 39.6594 209.036 39.7482C208.822 39.837 208.596 39.8813 208.356 39.8813H200.551C199.814 39.8813 199.068 39.8014 198.314 39.6416C197.559 39.4818 196.826 39.2376 196.116 38.909C195.414 38.5716 194.753 38.1454 194.131 37.6304C193.51 37.1154 192.964 36.5071 192.493 35.8056C192.031 35.0953 191.667 34.2873 191.401 33.3815C191.134 32.4669 191.001 31.4502 191.001 30.3314V20.7815H194.464V30.3314C194.464 31.3082 194.598 32.134 194.864 32.8088C195.139 33.4837 195.485 34.0475 195.903 34.5004C196.32 34.9532 196.777 35.3084 197.275 35.5659C197.772 35.8234 198.243 36.0143 198.687 36.1386C199.139 36.2629 199.535 36.3429 199.872 36.3784C200.218 36.405 200.445 36.4183 200.551 36.4183H206.638V20.7815H210.101V38.1365ZM236.367 39.8813H232.877V28.5067L226.737 39.3086C226.586 39.5839 226.373 39.7926 226.098 39.9346C225.831 40.0767 225.543 40.1477 225.232 40.1477C224.93 40.1477 224.646 40.0767 224.379 39.9346C224.122 39.7926 223.918 39.5839 223.767 39.3086L217.6 28.5067V39.8813H214.137V22.2599C214.137 21.8604 214.252 21.5052 214.483 21.1944C214.723 20.8836 215.034 20.6749 215.416 20.5684C215.602 20.524 215.788 20.5107 215.975 20.5284C216.161 20.5373 216.339 20.5773 216.508 20.6483C216.685 20.7105 216.845 20.8037 216.987 20.928C217.129 21.0434 217.249 21.1855 217.347 21.3542L225.232 35.0598L233.117 21.3542C233.321 21.0168 233.601 20.7771 233.956 20.635C234.32 20.4929 234.697 20.4707 235.088 20.5684C235.461 20.6749 235.767 20.8836 236.007 21.1944C236.247 21.5052 236.367 21.8604 236.367 22.2599V39.8813Z" fill="#493A8B"/>
</g>
<defs>
<filter id="filter0_d_595_1167" x="1.05664" y="0.557159" width="240.922" height="65.0838" filterUnits="userSpaceOnUse" color-interpolation-filters="sRGB">
<feFlood flood-opacity="0" result="BackgroundImageFix"/>
<feColorMatrix in="SourceAlpha" type="matrix" values="0 0 0 0 0 0 0 0 0 0 0 0 0 0 0 0 0 0 127 0" result="hardAlpha"/>
<feOffset dx="3.18196" dy="2.19845"/>
<feGaussianBlur stdDeviation="1.21493"/>
<feComposite in2="hardAlpha" operator="out"/>
<feColorMatrix type="matrix" values="0 0 0 0 0 0 0 0 0 0 0 0 0 0 0 0 0 0 0.25 0"/>
<feBlend mode="normal" in2="BackgroundImageFix" result="effect1_dropShadow_595_1167"/>
<feBlend mode="normal" in="SourceGraphic" in2="effect1_dropShadow_595_1167" result="shape"/>
</filter>
</defs>
</svg>
