<svg width="305" height="278" viewBox="0 0 305 278" fill="none" xmlns="http://www.w3.org/2000/svg">
<g filter="url(#filter0_d_595_792)">
<path d="M89.5125 229.355L58.0745 171.6C56.7787 169.22 53.2048 169.821 52.7594 172.494C52.6546 173.123 52.7663 173.774 53.0727 174.334C72.4657 209.749 89.4079 236.047 82.9714 240.84L86.509 238.246C86.91 237.952 87.2695 237.605 87.5777 237.214L88.9966 235.417C90.3666 233.682 90.5695 231.297 89.5125 229.355Z" fill="#A5A0A6"/>
<path d="M8.79609 232.632L43.0785 173.387C45.2333 169.663 50.6303 169.724 52.7 173.496L85.2092 232.741C87.2287 236.422 84.5657 240.92 80.3677 240.92H13.576C9.32241 240.92 6.66569 236.314 8.79609 232.632Z" fill="#553F80"/>
<path d="M170.592 176.615L171.893 176.028C174.854 174.695 176.031 171.108 174.436 168.28L161.943 146.129L150.478 125.909C149.156 123.578 145.685 123.972 144.92 126.54C144.682 127.339 144.784 128.205 145.201 128.927C160.403 155.267 173.956 175.32 164.428 178.436L169.841 176.889C170.098 176.816 170.349 176.724 170.592 176.615Z" fill="#D9D8DD"/>
<path d="M167.74 169.52L143.86 127.484C141.743 123.758 136.373 123.758 134.257 127.484L110.376 169.52C108.285 173.202 110.944 177.771 115.178 177.771H162.938C167.173 177.771 169.832 173.202 167.74 169.52Z" fill="#945DB1"/>
<path d="M258.033 243.602L265.847 233.21C267.156 231.469 267.319 229.121 266.264 227.215L206.975 120.174L145.531 14.6087C144.316 12.5219 141.316 12.483 140.047 14.5376C139.436 15.5279 139.417 16.7817 139.988 17.7955C204.7 132.62 259.041 223.496 262.237 236.069C262.481 237.031 261.88 237.96 261.321 238.779L258.033 243.602Z" fill="#E3D5E8"/>
<path d="M61.13 140.633L131.196 18.4222C133.326 14.7068 138.691 14.7249 140.796 18.4545L261.817 232.88C263.895 236.561 261.235 241.117 257.008 241.117H123.188C121.268 241.117 119.486 240.12 118.482 238.484L107.82 221.119C105.561 217.439 108.209 212.707 112.527 212.707H208.371C212.62 212.707 215.278 208.108 213.155 204.426L140.725 78.8107C138.619 75.158 133.361 75.1177 131.199 78.7377L81.3501 162.208C79.2701 165.691 74.2706 165.817 72.0169 162.444L61.3291 146.448C60.1643 144.705 60.0872 142.452 61.13 140.633Z" fill="#945DB1"/>
<path d="M87.6035 165.694L138.31 80.5385C139.721 78.1693 138.014 75.1658 135.257 75.1658C133.998 75.1658 132.834 75.8311 132.195 76.9151L81.865 162.294C81.1447 163.516 81.2761 165.06 82.1927 166.142C83.6721 167.89 86.4321 167.661 87.6035 165.694Z" fill="#DCD9E4"/>
</g>
<defs>
<filter id="filter0_d_595_792" x="0.0691853" y="0.790314" width="304.638" height="276.31" filterUnits="userSpaceOnUse" color-interpolation-filters="sRGB">
<feFlood flood-opacity="0" result="BackgroundImageFix"/>
<feColorMatrix in="SourceAlpha" type="matrix" values="0 0 0 0 0 0 0 0 0 0 0 0 0 0 0 0 0 0 127 0" result="hardAlpha"/>
<feOffset dx="14.888" dy="10.6343"/>
<feGaussianBlur stdDeviation="11.4319"/>
<feComposite in2="hardAlpha" operator="out"/>
<feColorMatrix type="matrix" values="0 0 0 0 0 0 0 0 0 0 0 0 0 0 0 0 0 0 0.25 0"/>
<feBlend mode="normal" in2="BackgroundImageFix" result="effect1_dropShadow_595_792"/>
<feBlend mode="normal" in="SourceGraphic" in2="effect1_dropShadow_595_792" result="shape"/>
</filter>
</defs>
</svg>
