<svg width="1086" height="947" viewBox="0 0 1086 947" fill="none" xmlns="http://www.w3.org/2000/svg">
<g opacity="0.5" filter="url(#filter0_f_422_766)">
<g filter="url(#filter1_f_422_766)">
<path d="M214.697 197.25C287.66 134.987 333.887 112.805 422.285 90.6391C464.481 80.0583 490.895 72.0107 534.28 68.8108C584.486 65.1077 646.351 65.0187 696.551 68.8109C756.682 73.3534 798.279 75.4004 859.234 114.115C896.2 137.594 929.878 167.32 948.606 212.96C966.86 257.442 962.61 335.281 962.61 335.281C962.61 335.281 857.426 244.542 774.536 225.68C674.766 202.976 605.452 211.76 515.266 263.462C492.562 276.478 487.541 277.367 432.882 317.702C401.385 340.944 374.039 359.018 354.707 393.75C335.375 428.482 312.87 460.118 312.87 482.669C312.87 527.558 322.229 561.113 330.978 575.702C335.69 583.557 351.431 627.337 386.029 654.271C391.334 658.4 432.882 710.48 488.022 685.791C497.327 681.625 515.266 646.14 515.266 646.14C515.266 646.14 518.823 662.463 515.266 708.984C510.942 765.561 399.004 792.597 386.029 792.597C302.204 792.597 289.084 798.975 201.508 748.636C135.165 710.502 91.2496 618.458 88.1989 611.351C64.5957 556.362 58.5015 481.565 76.3059 395.884C88.1989 338.65 146.42 255.516 214.697 197.25Z" fill="#7338AC"/>
</g>
<g filter="url(#filter2_f_422_766)">
<path d="M445.808 676.276C453.376 679.876 477.966 689.967 496.623 665.053C516.085 639.067 501.597 641.487 517.166 621.287C538.789 593.231 535.346 599.965 544.195 593.231C553.044 586.498 576.214 593.231 582.037 593.231C599.336 593.231 630.284 616.798 640.421 633.631C650.557 650.465 668.531 704.331 662.044 744.731C653.568 797.521 526.455 871.929 526.455 871.929C526.455 871.929 613.792 880.166 662.044 880.166C723.411 880.166 794.985 853.396 794.985 853.396C794.985 853.396 999.393 780.593 921.013 621.287C863.054 503.487 728.473 396.714 681.291 384.872C626.297 371.069 592.426 375.835 538.575 393.849C487.741 410.854 444.013 444.349 415.32 483.627C392.002 515.546 374.235 574.527 382.884 614.927C390.194 649.073 426.934 667.298 445.808 676.276Z" fill="url(#paint0_linear_422_766)"/>
</g>
<g filter="url(#filter3_f_422_766)">
<path d="M571.562 602.931C571.918 602.922 572.429 603.114 572.429 603.114C572.429 603.114 572.127 603.042 571.562 602.931C570.705 602.955 570.753 604.158 581.078 612.092C603.783 629.541 621.588 686.497 621.588 724.689C621.588 762.47 596.853 811.03 572.429 832.656C525.792 873.949 519.667 867.901 480.35 873.011C454.848 876.325 431.304 875.566 402.178 873.011C377.054 870.807 340.154 857.887 340.154 857.887C340.154 857.887 299.538 848.334 269.322 832.656C235.779 815.252 217.18 801.538 197.756 780.426C178.332 759.314 149.678 708.347 149.678 708.347C149.678 708.347 179.7 730.819 208.284 746.759C225.583 756.406 272.959 777.812 296.941 780.426C369.02 788.281 400.014 780.426 410.466 780.426C420.917 780.426 484.331 754.615 492.636 738.903C507.259 711.239 511.016 702.161 511.016 676.059V638.573L517.143 620.617C536.719 597.419 566.163 601.879 571.562 602.931Z" fill="url(#paint1_linear_422_766)"/>
</g>
<g filter="url(#filter4_f_422_766)">
<path d="M981.143 330.34C1098.96 450.05 907.833 752.08 907.833 752.08C907.833 752.08 858.822 532.149 773.156 462.957C723.762 428.631 687.876 416.728 675.474 413.335C672.983 412.685 671.39 412.345 670.731 412.169C626.16 400.265 588.894 408.489 544.233 420.025C489.071 434.273 431.79 495.214 431.79 495.214C431.79 495.214 396.033 541.597 392.867 577.136C390.046 608.804 390.63 627.251 408.004 653.447C421.652 674.027 456.657 692.725 456.657 692.725C456.657 692.725 424.538 695.059 408.004 684.869C373.406 663.547 368 653.447 346.376 624.269C318.331 586.426 309.616 567.036 302.048 515.414C294.331 462.776 316.585 419.602 346.376 376.258C372.974 337.56 428.546 299.947 428.546 299.947C428.546 299.947 494.499 250.569 568.019 230.369C641.539 210.169 648.657 214.304 701.005 211.291C708.581 210.855 770.505 219.884 813.93 236.848C881.468 263.232 930.283 278.662 981.143 330.34Z" fill="url(#paint2_linear_422_766)"/>
</g>
<g filter="url(#filter5_f_422_766)">
<path d="M605.759 608.4C588.911 600.902 558.187 601.667 558.187 601.667C558.187 601.667 580.397 621.911 589.541 635.708C599.988 651.471 602.494 662.888 605.759 681.719C609.124 701.129 608.914 712.771 605.759 732.219C602.566 751.901 599.168 763.198 589.541 780.475C580.392 796.893 564.345 813.966 550.619 826.486C527.78 847.317 490.072 865.34 490.072 865.34C540.869 886.756 578.348 880.578 619.814 865.34C619.814 865.34 645.033 825.307 653.331 804.789C662.212 782.831 666.286 766.855 667.386 743.067C668.785 712.84 653.331 663.763 653.331 663.763C653.331 663.763 630.182 619.27 605.759 608.4Z" fill="#83EAFD"/>
</g>
</g>
<path d="M548.92 738.107L301.333 300.11L548.916 369.838L548.92 738.107Z" fill="url(#paint3_linear_422_766)"/>
<path d="M546.498 225.572L796.228 301.862L547.951 372.052L301.343 303.167L546.498 225.572Z" fill="#8E93EF"/>
<path d="M548.486 738.108L548.486 370.861L796.227 301.492L548.486 738.108Z" fill="url(#paint4_linear_422_766)"/>
<path d="M552.702 591.098L552.595 229.328L795.935 659.523L552.702 591.098Z" stroke="#EEEEEE" stroke-width="2.85075"/>
<path d="M793.875 658.861L553.727 734.95L309.035 660.28L552.242 591.444L793.875 658.861Z" stroke="#EEEEEE" stroke-width="2.85075"/>
<path d="M550.279 590.074L306.93 658.293L550.177 229.308L550.279 590.074Z" stroke="#EEEEEE" stroke-width="2.85075"/>
<defs>
<filter id="filter0_f_422_766" x="0.103111" y="0.103111" width="1085.3" height="945.96" filterUnits="userSpaceOnUse" color-interpolation-filters="sRGB">
<feFlood flood-opacity="0" result="BackgroundImageFix"/>
<feBlend mode="normal" in="SourceGraphic" in2="BackgroundImageFix" result="shape"/>
<feGaussianBlur stdDeviation="32.9484" result="effect1_foregroundBlur_422_766"/>
</filter>
<filter id="filter1_f_422_766" x="57.6181" y="57.6181" width="913.803" height="743.621" filterUnits="userSpaceOnUse" color-interpolation-filters="sRGB">
<feFlood flood-opacity="0" result="BackgroundImageFix"/>
<feBlend mode="normal" in="SourceGraphic" in2="BackgroundImageFix" result="shape"/>
<feGaussianBlur stdDeviation="4.19095" result="effect1_foregroundBlur_422_766"/>
</filter>
<filter id="filter2_f_422_766" x="372.276" y="368.497" width="575.02" height="520.051" filterUnits="userSpaceOnUse" color-interpolation-filters="sRGB">
<feFlood flood-opacity="0" result="BackgroundImageFix"/>
<feBlend mode="normal" in="SourceGraphic" in2="BackgroundImageFix" result="shape"/>
<feGaussianBlur stdDeviation="4.19095" result="effect1_foregroundBlur_422_766"/>
</filter>
<filter id="filter3_f_422_766" x="141.441" y="593.655" width="488.384" height="289.803" filterUnits="userSpaceOnUse" color-interpolation-filters="sRGB">
<feFlood flood-opacity="0" result="BackgroundImageFix"/>
<feBlend mode="normal" in="SourceGraphic" in2="BackgroundImageFix" result="shape"/>
<feGaussianBlur stdDeviation="4.11856" result="effect1_foregroundBlur_422_766"/>
</filter>
<filter id="filter4_f_422_766" x="292.124" y="202.894" width="735.768" height="557.568" filterUnits="userSpaceOnUse" color-interpolation-filters="sRGB">
<feFlood flood-opacity="0" result="BackgroundImageFix"/>
<feBlend mode="normal" in="SourceGraphic" in2="BackgroundImageFix" result="shape"/>
<feGaussianBlur stdDeviation="4.19095" result="effect1_foregroundBlur_422_766"/>
</filter>
<filter id="filter5_f_422_766" x="481.69" y="593.263" width="194.168" height="294.3" filterUnits="userSpaceOnUse" color-interpolation-filters="sRGB">
<feFlood flood-opacity="0" result="BackgroundImageFix"/>
<feBlend mode="normal" in="SourceGraphic" in2="BackgroundImageFix" result="shape"/>
<feGaussianBlur stdDeviation="4.19095" result="effect1_foregroundBlur_422_766"/>
</filter>
<linearGradient id="paint0_linear_422_766" x1="438" y1="607.464" x2="802.485" y2="1037.65" gradientUnits="userSpaceOnUse">
<stop stop-color="#219BE4"/>
<stop offset="1" stop-color="#B7EFFE"/>
</linearGradient>
<linearGradient id="paint1_linear_422_766" x1="316.276" y1="896.49" x2="941.406" y2="570.255" gradientUnits="userSpaceOnUse">
<stop stop-color="#635AD9"/>
<stop offset="1" stop-color="#83EAFD"/>
</linearGradient>
<linearGradient id="paint2_linear_422_766" x1="554.336" y1="794.162" x2="1597.69" y2="374.878" gradientUnits="userSpaceOnUse">
<stop stop-color="#635AD9"/>
<stop offset="1" stop-color="#83EAFD"/>
</linearGradient>
<linearGradient id="paint3_linear_422_766" x1="568.46" y1="505.206" x2="500.909" y2="843.5" gradientUnits="userSpaceOnUse">
<stop stop-color="#8671EA"/>
<stop offset="0.984375" stop-color="#AABFF4"/>
</linearGradient>
<linearGradient id="paint4_linear_422_766" x1="671.381" y1="638.165" x2="699.328" y2="707.081" gradientUnits="userSpaceOnUse">
<stop offset="0.430163" stop-color="#9056E8"/>
<stop offset="1" stop-color="#3C21B7" stop-opacity="0.13"/>
</linearGradient>
</defs>
</svg>
